:FULLY-SPECIFIED
:DEGREES
84
root -2.87516 16.3549 -36.1384 3.88227 0.721197 -2.87578
lfemur -23.6968 6.39795 -8.37173
ltibia 47.8352
lfoot -23.355 0.415445
ltoes -9.3857
rfemur -23.5934 -7.24111 14.5388
rtibia 49.8495
rfoot -27.1479 1.91673
rtoes -7.97592
lowerback 7.29701 1.92408 -1.69642
upperback -3.85774 2.49997 1.30799
thorax -8.30576 1.35704 1.97354
lowerneck -3.20038 -3.85585 -6.59015
upperneck 6.76822 -5.20986 6.0065
head 3.15784 -2.56981 2.96729
lclavicle 1.40011e-14 -3.08116e-15
lhumerus -26.7875 -1.65771 88.5781
lradius 24.3226
lwrist -31.4042
lhand -28.2278 30.2163
lfingers 7.12502
lthumb -1.60591 60.19
rclavicle 1.40011e-14 -3.08116e-15
rhumerus -32.4922 1.76453 -79.7106
rradius 30.1615
rwrist 3.38719
rhand -19.9151 -26.8112
rfingers 7.12502
rthumb 6.4218 -56.6939
85
root -2.87791 16.3525 -36.1372 3.88769 0.708535 -2.8843
lfemur -23.7184 6.40931 -8.35109
ltibia 47.8787
lfoot -23.3747 0.437774
ltoes -9.39552
rfemur -23.6209 -7.23434 14.5586
rtibia 49.8848
rfoot -27.1596 1.94444
rtoes -7.88521
lowerback 7.28508 1.92005 -1.71159
upperback -3.85341 2.49376 1.31742
thorax -8.29499 1.35506 1.99337
lowerneck -3.21471 -3.85176 -6.59988
upperneck 6.78475 -5.20334 6.00326
head 3.16604 -2.56674 2.9682
lclavicle 5.21126e-14 8.54774e-15
lhumerus -26.7481 -1.61426 88.567
lradius 24.2812
lwrist -31.4051
lhand -28.1212 30.3363
lfingers 7.12502
lthumb -1.50295 60.3108
rclavicle 5.21126e-14 8.54774e-15
rhumerus -32.4455 1.78158 -79.7314
rradius 30.1568
rwrist 3.38777
rhand -19.8899 -26.7953
rfingers 7.12502
rthumb 6.44613 -56.6772
86
root -2.87995 16.3507 -36.1357 3.87444 0.700207 -2.93374
lfemur -23.7246 6.44382 -8.28773
ltibia 47.9236
lfoot -23.4091 0.45337
ltoes -9.51629
rfemur -23.6233 -7.23597 14.6236
rtibia 49.919
rfoot -27.1738 1.91294
rtoes -7.9795
lowerback 7.30227 1.92713 -1.66964
upperback -3.83064 2.50837 1.32988
thorax -8.27977 1.35992 1.98065
lowerneck -3.30264 -3.88571 -6.61378
upperneck 6.79247 -5.24554 6.03092
head 3.19032 -2.58585 2.97745
lclavicle 3.27762e-15 1.6201e-14
lhumerus -26.7264 -1.64625 88.5804
lradius 24.3042
lwrist -31.4048
lhand -28.1777 30.3461
lfingers 7.12502
lthumb -1.5575 60.3201
rclavicle 3.27762e-15 1.6201e-14
rhumerus -32.3992 1.7794 -79.7466
rradius 30.1938
rwrist 3.36848
rhand -19.9207 -26.8712
rfingers 7.12502
rthumb 6.41636 -56.754
87
root -2.88124 16.3495 -36.1345 3.88767 0.691884 -2.90775
lfemur -23.7548 6.44281 -8.31445
ltibia 47.9635
lfoot -23.4133 0.450553
ltoes -9.42525
rfemur -23.652 -7.2802 14.5986
rtibia 49.9594
rfoot -27.1982 1.92828
rtoes -8.03978
lowerback 7.29431 1.92612 -1.69413
upperback -3.83586 2.50369 1.31935
thorax -8.28117 1.35871 1.98411
lowerneck -3.27221 -3.87601 -6.60963
upperneck 6.76583 -5.23348 6.03113
head 3.1743 -2.58019 2.97756
lclavicle 7.64777e-15 -1.09332e-15
lhumerus -26.7301 -1.63844 88.5734
lradius 24.301
lwrist -31.4307
lhand -28.2314 30.1995
lfingers 7.12502
lthumb -1.60943 60.1732
rclavicle 7.64777e-15 -1.09332e-15
rhumerus -32.3644 1.7898 -79.7701
rradius 30.1931
rwrist 3.3731
rhand -19.9456 -26.9052
rfingers 7.12502
rthumb 6.39231 -56.7887
88
root -2.88317 16.3464 -36.133 3.87184 0.672867 -2.92923
lfemur -23.7459 6.48148 -8.27864
ltibia 48.008
lfoot -23.4421 0.479899
ltoes -9.55168
rfemur -23.6573 -7.28265 14.6265
rtibia 50.0007
rfoot -27.2161 1.96217
rtoes -8.0187
lowerback 7.31364 1.92186 -1.69196
upperback -3.82402 2.49915 1.33569
thorax -8.28014 1.35675 2.00045
lowerneck -3.35954 -3.88399 -6.58268
upperneck 6.83168 -5.2386 5.9687
head 3.21023 -2.5827 2.94969
lclavicle -1.09844e-14 9.93923e-16
lhumerus -26.716 -1.6122 88.5764
lradius 24.2952
lwrist -31.4274
lhand -28.2004 30.3998
lfingers 7.12502
lthumb -1.57941 60.3737
rclavicle -1.09844e-14 9.93923e-16
rhumerus -32.3407 1.82118 -79.787
rradius 30.2323
rwrist 3.34233
rhand -19.8917 -26.9074
rfingers 7.12502
rthumb 6.44437 -56.7893
89
root -2.8838 16.3432 -36.1327 3.85888 0.669947 -2.94762
lfemur -23.7499 6.48587 -8.25242
ltibia 48.0531
lfoot -23.4632 0.483957
ltoes -9.59727
rfemur -23.663 -7.30874 14.644
rtibia 50.0487
rfoot -27.2455 1.98768
rtoes -7.98757
lowerback 7.33591 1.92195 -1.6641
upperback -3.81881 2.50205 1.33664
thorax -8.28637 1.35661 1.98479
lowerneck -3.34441 -3.88847 -6.585
upperneck 6.80766 -5.2455 5.98238
head 3.20025 -2.58596 2.95465
lclavicle 2.09594e-14 2.3556e-14
lhumerus -26.7073 -1.62251 88.5791
lradius 24.2902
lwrist -31.4191
lhand -28.2556 30.1519
lfingers 7.12502
lthumb -1.63279 60.1254
rclavicle 2.09594e-14 2.3556e-14
rhumerus -32.3324 1.87139 -79.8093
rradius 30.2786
rwrist 3.29368
rhand -19.8829 -26.9523
rfingers 7.12502
rthumb 6.45283 -56.834
90
root -2.885 16.3411 -36.1312 3.87153 0.666428 -2.95012
lfemur -23.7809 6.50682 -8.24227
ltibia 48.0989
lfoot -23.4885 0.447153
ltoes -9.45415
rfemur -23.6974 -7.32264 14.6525
rtibia 50.0966
rfoot -27.2722 2.01264
rtoes -7.94601
lowerback 7.3352 1.92859 -1.66118
upperback -3.82097 2.51109 1.3339
thorax -8.28848 1.36082 1.9789
lowerneck -3.38566 -3.88552 -6.60138
upperneck 6.83592 -5.24073 6.00224
head 3.21905 -2.5828 2.96451
lclavicle 8.39089e-15 2.32578e-14
lhumerus -26.6876 -1.63413 88.589
lradius 24.2638
lwrist -31.4562
lhand -28.2441 30.1161
lfingers 7.12502
lthumb -1.62164 60.0897
rclavicle 8.39089e-15 2.32578e-14
rhumerus -32.3319 1.85993 -79.8117
rradius 30.3108
rwrist 3.27437
rhand -19.9123 -26.8889
rfingers 7.12502
rthumb 6.42451 -56.7714
91
root -2.88678 16.338 -36.1306 3.85774 0.643805 -2.96053
lfemur -23.7804 6.54936 -8.21984
ltibia 48.1442
lfoot -23.5149 0.447998
ltoes -9.51535
rfemur -23.7135 -7.31684 14.6709
rtibia 50.1474
rfoot -27.2917 1.97949
rtoes -8.07032
lowerback 7.33617 1.93165 -1.67057
upperback -3.80818 2.51477 1.34285
thorax -8.27633 1.36321 1.99325
lowerneck -3.38035 -3.89048 -6.57776
upperneck 6.83732 -5.24643 5.96569
head 3.21638 -2.58623 2.94711
lclavicle 5.08765e-15 4.67144e-15
lhumerus -26.6717 -1.62399 88.5948
lradius 24.2623
lwrist -31.4426
lhand -28.1862 30.1066
lfingers 7.12502
lthumb -1.56578 60.0806
rclavicle 5.08765e-15 4.67144e-15
rhumerus -32.3165 1.89525 -79.834
rradius 30.3459
rwrist 3.244
rhand -19.9753 -26.7618
rfingers 7.12502
rthumb 6.36365 -56.6462
92
root -2.88844 16.3358 -36.1295 3.86403 0.636498 -2.94335
lfemur -23.8015 6.56588 -8.22953
ltibia 48.1815
lfoot -23.5289 0.414303
ltoes -9.5051
rfemur -23.74 -7.32474 14.653
rtibia 50.2008
rfoot -27.3368 2.0155
rtoes -8.05891
lowerback 7.33327 1.93598 -1.6967
upperback -3.81184 2.51752 1.33897
thorax -8.27982 1.36594 2.00345
lowerneck -3.34794 -3.90282 -6.59413
upperneck 6.84672 -5.26417 5.96505
head 3.21539 -2.59601 2.94958
lclavicle 7.43268e-15 7.45443e-15
lhumerus -26.6603 -1.62315 88.6009
lradius 24.2276
lwrist -31.4871
lhand -28.2092 30.2356
lfingers 7.12502
lthumb -1.58797 60.2095
rclavicle 7.43268e-15 7.45443e-15
rhumerus -32.3172 1.89948 -79.8355
rradius 30.3746
rwrist 3.22759
rhand -19.9331 -26.6932
rfingers 7.12502
rthumb 6.40442 -56.5764
93
root -2.89059 16.3333 -36.1271 3.85575 0.614545 -2.92263
lfemur -23.7929 6.59388 -8.24181
ltibia 48.2193
lfoot -23.5664 0.427139
ltoes -9.57005
rfemur -23.7642 -7.31453 14.6361
rtibia 50.2557
rfoot -27.3584 2.02177
rtoes -8.0935
lowerback 7.32082 1.94166 -1.7311
upperback -3.79911 2.52113 1.33455
thorax -8.26043 1.3692 2.01812
lowerneck -3.37564 -3.88972 -6.58619
upperneck 6.83035 -5.24607 5.98125
head 3.21407 -2.58585 2.95417
lclavicle -2.08258e-15 -8.94531e-16
lhumerus -26.6504 -1.64206 88.6066
lradius 24.2271
lwrist -31.4731
lhand -28.1915 30.2451
lfingers 7.12502
lthumb -1.57086 60.219
rclavicle -2.08258e-15 -8.94531e-16
rhumerus -32.2606 1.89417 -79.8548
rradius 30.3604
rwrist 3.24552
rhand -19.8269 -26.8748
rfingers 7.12502
rthumb 6.50689 -56.7548
94
root -2.89168 16.3305 -36.1259 3.86107 0.614332 -2.89395
lfemur -23.8164 6.6056 -8.2703
ltibia 48.2559
lfoot -23.5713 0.449753
ltoes -9.68364
rfemur -23.7885 -7.3625 14.6055
rtibia 50.3125
rfoot -27.3965 2.02991
rtoes -8.15724
lowerback 7.31923 1.94725 -1.76102
upperback -3.79868 2.52475 1.32581
thorax -8.26027 1.37233 2.0252
lowerneck -3.37437 -3.89529 -6.59595
upperneck 6.81889 -5.25375 5.9962
head 3.21149 -2.58946 2.96083
lclavicle 1.62491e-14 2.54444e-14
lhumerus -26.6309 -1.62888 88.6181
lradius 24.2066
lwrist -31.5097
lhand -28.2297 30.2572
lfingers 7.12502
lthumb -1.60774 60.2309
rclavicle 1.62491e-14 2.54444e-14
rhumerus -32.2593 1.91424 -79.8664
rradius 30.3861
rwrist 3.23227
rhand -19.7911 -26.9926
rfingers 7.12502
rthumb 6.54151 -56.8716
95
root -2.89239 16.3278 -36.1241 3.87196 0.612014 -2.89027
lfemur -23.8491 6.63961 -8.27201
ltibia 48.2985
lfoot -23.5899 0.432678
ltoes -9.71284
rfemur -23.8147 -7.38419 14.6023
rtibia 50.3594
rfoot -27.4337 2.08915
rtoes -8.098
lowerback 7.26959 1.944 -1.76088
upperback -3.78149 2.52051 1.32113
thorax -8.21221 1.36964 2.02253
lowerneck -3.41059 -3.89134 -6.56718
upperneck 6.83805 -5.24702 5.97215
head 3.22229 -2.58556 2.94697
lclavicle 1.90367e-14 4.27387e-15
lhumerus -26.6023 -1.65985 88.6243
lradius 24.1967
lwrist -31.498
lhand -28.2704 30.1827
lfingers 7.12502
lthumb -1.64702 60.1561
rclavicle 1.90367e-14 4.27387e-15
rhumerus -32.2381 1.94421 -79.8855
rradius 30.4113
rwrist 3.22929
rhand -19.8285 -26.7458
rfingers 7.12502
rthumb 6.5054 -56.6259
96
root -2.89352 16.3252 -36.1233 3.87168 0.615593 -2.90233
lfemur -23.8697 6.65312 -8.25281
ltibia 48.3448
lfoot -23.6072 0.429388
ltoes -9.6954
rfemur -23.8371 -7.41333 14.6216
rtibia 50.4007
rfoot -27.4531 2.06742
rtoes -8.23522
lowerback 7.26861 1.94568 -1.74765
upperback -3.78221 2.52422 1.32153
thorax -8.21199 1.37075 2.015
lowerneck -3.39203 -3.89737 -6.57397
upperneck 6.8294 -5.25672 5.98889
head 3.21748 -2.59031 2.95382
lclavicle 1.88543e-14 1.09332e-15
lhumerus -26.6004 -1.66923 88.6355
lradius 24.2006
lwrist -31.4933
lhand -28.3087 30.2131
lfingers 7.12502
lthumb -1.6841 60.1862
rclavicle 1.88543e-14 1.09332e-15
rhumerus -32.2422 1.96707 -79.8992
rradius 30.428
rwrist 3.21712
rhand -19.8065 -26.9305
rfingers 7.12502
rthumb 6.5266 -56.81
97
root -2.89419 16.3232 -36.1216 3.86702 0.631712 -2.93651
lfemur -23.8909 6.67309 -8.20976
ltibia 48.3932
lfoot -23.6244 0.434763
ltoes -9.84042
rfemur -23.8373 -7.43777 14.66
rtibia 50.4323
rfoot -27.4724 2.07067
rtoes -8.23686
lowerback 7.25995 1.93438 -1.70525
upperback -3.78997 2.51452 1.33137
thorax -8.21321 1.36411 2.00316
lowerneck -3.30623 -3.895 -6.60729
upperneck 6.78963 -5.25785 6.02766
head 3.19053 -2.59183 2.97446
lclavicle -1.21973e-14 -1.37161e-14
lhumerus -26.6276 -1.6512 88.6373
lradius 24.2047
lwrist -31.5175
lhand -28.327 30.2094
lfingers 7.12502
lthumb -1.70172 60.1824
rclavicle -1.21973e-14 -1.37161e-14
rhumerus -32.2573 1.99052 -79.9145
rradius 30.4441
rwrist 3.24213
rhand -20.0031 -26.7458
rfingers 7.12502
rthumb 6.33681 -56.631
